[Header]
FileType HTR
DataType HTRS
FileVersion 1
NumSegments 64
NumFrames 3
DataFrameRate 30
EulerRotationOrder ZYX
CalibrationUnits mm
RotationUnits Degrees
GlobalAxisofGravity Y
BoneLengthAxis Y
ScaleFactor 1.0
[SegmentNames&Hierarchy]
Hips	GLOBAL
Spine	Hips
Spine1	Spine
Spine2	Spine1
Neck	Spine2
Head	Neck
LeftEye	Head
RightEye	Head
LeftShoulder	Spine2
LeftArm	LeftShoulder
LeftForeArm	LeftArm
LeftHand	LeftForeArm
LeftHandThumb1	LeftHand
LeftHandThumb2	LeftHandThumb1
LeftHandThumb3	LeftHandThumb2
LeftHandThumb4	LeftHandThumb3
LeftHandIndex1	LeftHand
LeftHandIndex2	LeftHandIndex1
LeftHandIndex3	LeftHandIndex2
LeftHandIndex4	LeftHandIndex3
LeftHandMiddle1	LeftHand
LeftHandMiddle2	LeftHandMiddle1
LeftHandMiddle3	LeftHandMiddle2
LeftHandMiddle4	LeftHandMiddle3
LeftHandRing1	LeftHand
LeftHandRing2	LeftHandRing1
LeftHandRing3	LeftHandRing2
LeftHandRing4	LeftHandRing3
LeftHandPinky1	LeftHand
LeftHandPinky2	LeftHandPinky1
LeftHandPinky3	LeftHandPinky2
LeftHandPinky4	LeftHandPinky3
RightShoulder	Spine2
RightArm	RightShoulder
RightForeArm	RightArm
RightHand	RightForeArm
RightHandPinky1	RightHand
RightHandPinky2	RightHandPinky1
RightHandPinky3	RightHandPinky2
RightHandPinky4	RightHandPinky3
RightHandRing1	RightHand
RightHandRing2	RightHandRing1
RightHandRing3	RightHandRing2
RightHandRing4	RightHandRing3
RightHandMiddle1	RightHand
RightHandMiddle2	RightHandMiddle1
RightHandMiddle3	RightHandMiddle2
RightHandMiddle4	RightHandMiddle3
RightHandIndex1	RightHand
RightHandIndex2	RightHandIndex1
RightHandIndex3	RightHandIndex2
RightHandIndex4	RightHandIndex3
RightHandThumb1	RightHand
RightHandThumb2	RightHandThumb1
RightHandThumb3	RightHandThumb2
RightHandThumb4	RightHandThumb3
LeftUpLeg	Hips
LeftLeg	LeftUpLeg
LeftFoot	LeftLeg
LeftToeBase	LeftFoot
RightUpLeg	Hips
RightLeg	RightUpLeg
RightFoot	RightLeg
RightToeBase	RightFoot
[BasePosition]
Hips	0	0	0	0	0	0	1
Spine	0	0	0	0	0	0	1
Spine1	0	0	0	0	0	0	1
Spine2	0	0	0	0	0	0	1
Neck	0	0	0	0	0	0	1
Head	0	0	0	0	0	0	1
LeftEye	0	0	0	0	0	0	1
RightEye	0	0	0	0	0	0	1
LeftShoulder	0	0	0	0	0	0	1
LeftArm	0	0	0	0	0	0	1
LeftForeArm	0	0	0	0	0	0	1
LeftHand	0	0	0	0	0	0	1
LeftHandThumb1	0	0	0	0	0	0	1
LeftHandThumb2	0	0	0	0	0	0	1
LeftHandThumb3	0	0	0	0	0	0	1
LeftHandThumb4	0	0	0	0	0	0	1
LeftHandIndex1	0	0	0	0	0	0	1
LeftHandIndex2	0	0	0	0	0	0	1
LeftHandIndex3	0	0	0	0	0	0	1
LeftHandIndex4	0	0	0	0	0	0	1
LeftHandMiddle1	0	0	0	0	0	0	1
LeftHandMiddle2	0	0	0	0	0	0	1
LeftHandMiddle3	0	0	0	0	0	0	1
LeftHandMiddle4	0	0	0	0	0	0	1
LeftHandRing1	0	0	0	0	0	0	1
LeftHandRing2	0	0	0	0	0	0	1
LeftHandRing3	0	0	0	0	0	0	1
LeftHandRing4	0	0	0	0	0	0	1
LeftHandPinky1	0	0	0	0	0	0	1
LeftHandPinky2	0	0	0	0	0	0	1
LeftHandPinky3	0	0	0	0	0	0	1
LeftHandPinky4	0	0	0	0	0	0	1
RightShoulder	0	0	0	0	0	0	1
RightArm	0	0	0	0	0	0	1
RightForeArm	0	0	0	0	0	0	1
RightHand	0	0	0	0	0	0	1
RightHandPinky1	0	0	0	0	0	0	1
RightHandPinky2	0	0	0	0	0	0	1
RightHandPinky3	0	0	0	0	0	0	1
RightHandPinky4	0	0	0	0	0	0	1
RightHandRing1	0	0	0	0	0	0	1
RightHandRing2	0	0	0	0	0	0	1
RightHandRing3	0	0	0	0	0	0	1
RightHandRing4	0	0	0	0	0	0	1
RightHandMiddle1	0	0	0	0	0	0	1
RightHandMiddle2	0	0	0	0	0	0	1
RightHandMiddle3	0	0	0	0	0	0	1
RightHandMiddle4	0	0	0	0	0	0	1
RightHandIndex1	0	0	0	0	0	0	1
RightHandIndex2	0	0	0	0	0	0	1
RightHandIndex3	0	0	0	0	0	0	1
RightHandIndex4	0	0	0	0	0	0	1
RightHandThumb1	0	0	0	0	0	0	1
RightHandThumb2	0	0	0	0	0	0	1
RightHandThumb3	0	0	0	0	0	0	1
RightHandThumb4	0	0	0	0	0	0	1
LeftUpLeg	0	0	0	0	0	0	1
LeftLeg	0	0	0	0	0	0	1
LeftFoot	0	0	0	0	0	0	1
LeftToeBase	0	0	0	0	0	0	1
RightUpLeg	0	0	0	0	0	0	1
RightLeg	0	0	0	0	0	0	1
RightFoot	0	0	0	0	0	0	1
RightToeBase	0	0	0	0	0	0	1
[Hips]
3	-1.156808019	1025.413208	-1.013418317	-2.484275103	1.507058859	-3.587284803	1.0
4	-5.988442898	1026.141602	-10.59626579	-2.34749794	5.435885429	-3.237901688	1.0
5	-12.30556965	1027.779297	-20.92346573	-2.332070589	9.038856506	-2.922657251	1.0
[Spine]
3	0	101.8159943	1.315000057	3.609491348	1.808575869	3.934859514	1.0
4	0	101.8159943	1.315000057	3.774852276	1.980696797	3.683371305	1.0
5	0	101.8159943	1.315000057	3.941389799	2.171354771	3.256564379	1.0
[Spine1]
3	0	100.8349991	-10.00800037	1.387748718	0.5931606889	1.832495689	1.0
4	0	100.8349991	-10.00800037	1.544774532	0.7261538506	2.039372921	1.0
5	0	100.8349991	-10.00800037	1.715926647	0.9012998939	2.310043812	1.0
[Spine2]
3	0	91	-13.73399925	1.353138804	0.6178271174	1.665389299	1.0
4	0	91	-13.73399925	1.504566789	0.7394250631	1.681339979	1.0
5	0	91	-13.73399925	1.668766737	0.8952704072	1.69869101	1.0
[Neck]
3	0	166.7169952	-25.16200066	5.70716095	1.920217156	-0.2857833207	1.0
4	0	166.7169952	-25.16200066	6.123269081	3.601528406	-0.7485857606	1.0
5	0	166.7169952	-25.16200066	6.688151836	5.438321114	-1.135784864	1.0
[Head]
3	0	96.17900085	16.84999847	-7.958908558	6.675067425	-2.440107346	1.0
4	0	96.17900085	16.84999847	-7.523506165	10.57908535	-3.857124329	1.0
5	0	96.17900085	16.84999847	-6.626372337	14.85851097	-5.165049553	1.0
[LeftEye]
3	30.6760006	64.09500122	92.83599854	0	0	0	1.0
4	30.6760006	64.09500122	92.83599854	0	0	0	1.0
5	30.6760006	64.09500122	92.83599854	0	0	0	1.0
[RightEye]
3	-30.6760006	64.09500122	92.83499908	0	0	0	1.0
4	-30.6760006	64.09500122	92.83499908	0	0	0	1.0
5	-30.6760006	64.09500122	92.83499908	0	0	0	1.0
[LeftShoulder]
3	45.70400238	109.4599991	-26.28000069	5.025663376	-17.0424633	-13.89133072	1.0
4	45.70400238	109.4599991	-26.28000069	5.097812176	-17.13655663	-14.3783617	1.0
5	45.70400238	109.4599991	-26.28000069	5.152554035	-17.14189148	-14.85667133	1.0
[LeftArm]
3	105.923996	-5.24600029	-22.32099915	19.09435081	-6.489877224	-69.12548828	1.0
4	105.923996	-5.24600029	-22.32099915	18.44525337	-8.457515717	-67.66175842	1.0
5	105.923996	-5.24600029	-22.32099915	17.54132271	-10.02267551	-65.98919678	1.0
[LeftForeArm]
3	278.414978	-0.0009999999311	0	-5.140100257e-06	-2.658497334	-0.0001962823299	1.0
4	278.414978	-0.0009999999311	0	2.842330149e-09	-3.191756725	-0.0001991291647	1.0
5	278.414978	-0.0009999999311	0	1.634632412e-07	-4.271455288	-0.0001988177246	1.0
[LeftHand]
3	283.2879944	0	0	-31.09775162	-4.620321274	-0.7677592635	1.0
4	283.2879944	0	0	-28.54143715	-3.726456881	1.51160109	1.0
5	283.2879944	0	0	-25.83300018	-2.833646059	3.991300106	1.0
[LeftHandThumb1]
3	24.6609993	-15.75	26.8239994	-0.4889881611	2.201389551	4.818526268	1.0
4	24.6609993	-15.75	26.8239994	-0.4889881611	2.201389551	4.818526268	1.0
5	24.6609993	-15.75	26.8239994	-0.4889881611	2.201389551	4.818526268	1.0
[LeftHandThumb2]
3	32.29800034	-18.64699936	18.64699936	19.9101181	20.00713158	23.28414154	1.0
4	32.29800034	-18.64699936	18.64699936	20.52300072	20.0369091	23.49676132	1.0
5	32.29800034	-18.64699936	18.64699936	21.21398544	20.10907745	23.75622559	1.0
[LeftHandThumb3]
3	26.52600098	-15.31499958	15.31499958	-13.17534447	5.559559822	7.966934681	1.0
4	26.52600098	-15.31499958	15.31499958	-13.13482094	5.214841366	8.075139999	1.0
5	26.52600098	-15.31499958	15.31499958	-12.97659302	4.715215683	8.266180038	1.0
[LeftHandThumb4]
3	19.54599953	-11.28499985	11.28499985	0	0	0	1.0
4	19.54599953	-11.28499985	11.28499985	0	0	0	1.0
5	19.54599953	-11.28499985	11.28499985	0	0	0	1.0
[LeftHandIndex1]
3	91.09299469	-5.170999527	22.60099792	0.1397517473	-0.9328545332	-7.814684391	1.0
4	91.09299469	-5.170999527	22.60099792	0.1552747488	-0.8268570304	-8.133602142	1.0
5	91.09299469	-5.170999527	22.60099792	0.1744484156	-0.6906514168	-8.557135582	1.0
[LeftHandIndex2]
3	36.76399994	0	0	-0.2673242986	1.747158885	-17.39689445	1.0
4	36.76399994	0	0	-0.2673231065	1.747158885	-17.39688492	1.0
5	36.76399994	0	0	-0.267323941	1.747157216	-17.39689445	1.0
[LeftHandIndex3]
3	28.83100128	0	0	-0.05772131681	0.8194005489	-8.058783531	1.0
4	28.83100128	0	0	-0.05772307888	0.8193998933	-8.05879879	1.0
5	28.83100128	0	0	-0.05772341043	0.8194004893	-8.058797836	1.0
[LeftHandIndex4]
3	23.92700005	0	0	0	0	0	1.0
4	23.92700005	0	0	0	0	0	1.0
5	23.92700005	0	0	0	0	0	1.0
[LeftHandMiddle1]
3	95.33399963	0	0	-0.8117849231	2.492584467	-15.97804356	1.0
4	95.33399963	0	0	-0.8366232514	2.624801636	-16.33905602	1.0
5	95.33399963	0	0	-0.8677452803	2.812091112	-16.78800201	1.0
[LeftHandMiddle2]
3	36.98199844	0	0	-0.2683227062	1.750341177	-17.4295845	1.0
4	36.98199844	0	0	-0.2694253027	1.753844976	-17.46562386	1.0
5	36.98199844	0	0	-0.2708247006	1.758285761	-17.51133347	1.0
[LeftHandMiddle3]
3	29.50900078	0	0	-0.2999777496	1.848105073	-18.4378109	1.0
4	29.50900078	0	0	-0.3011265397	1.851543427	-18.47338295	1.0
5	29.50900078	0	0	-0.3025821447	1.855894327	-18.5184021	1.0
[LeftHandMiddle4]
3	28.3390007	0	0	0	0	0	1.0
4	28.3390007	0	0	0	0	0	1.0
5	28.3390007	0	0	0	0	0	1.0
[LeftHandRing1]
3	91.04499817	-0.4390000105	-18.65100098	-1.199891329	3.482700348	-21.36328506	1.0
4	91.04499817	-0.4390000105	-18.65100098	-1.218052626	3.572504044	-21.60124016	1.0
5	91.04499817	-0.4390000105	-18.65100098	-1.241289616	3.683213472	-21.90464783	1.0
[LeftHandRing2]
3	31.54000092	0	0	-0.3867661655	2.09034586	-20.96308327	1.0
4	31.54000092	0	0	-0.3873581886	2.091886282	-20.9792881	1.0
5	31.54000092	0	0	-0.3876931071	2.092752218	-20.98838234	1.0
[LeftHandRing3]
3	29.37700081	0	0	-0.2833784521	1.797567487	-17.91589737	1.0
4	29.37700081	0	0	-0.2838778198	1.799108624	-17.93180656	1.0
5	29.37700081	0	0	-0.2841528952	1.799960971	-17.94059944	1.0
[LeftHandRing4]
3	26.47500038	0	0	0	0	0	1.0
4	26.47500038	0	0	0	0	0	1.0
5	26.47500038	0	0	0	0	0	1.0
[LeftHandPinky1]
3	80.77799988	-4.887000084	-38.06099701	-1.718671441	5.353886604	-27.28654289	1.0
4	80.77799988	-4.887000084	-38.06099701	-1.719744205	5.476137638	-27.435606	1.0
5	80.77799988	-4.887000084	-38.06099701	-1.718221664	5.644129753	-27.63164139	1.0
[LeftHandPinky2]
3	36	0	0	-0.2682352066	1.75005877	-17.42671585	1.0
4	36	0	0	-0.2682337761	1.750058889	-17.42671776	1.0
5	36	0	0	-0.2682333589	1.750059962	-17.42672157	1.0
[LeftHandPinky3]
3	21.14200211	0	0	-0.2415003628	1.662533641	-16.52887917	1.0
4	21.14200211	0	0	-0.2415004373	1.662533283	-16.52888489	1.0
5	21.14200211	0	0	-0.2414996028	1.662532806	-16.52887535	1.0
[LeftHandPinky4]
3	19.75699997	0	0	0	0	0	1.0
4	19.75699997	0	0	0	0	0	1.0
5	19.75699997	0	0	0	0	0	1.0
[RightShoulder]
3	-45.70000076	109.4620056	0	5.17925024	14.60954571	15.0549984	1.0
4	-45.70000076	109.4620056	0	5.159673214	14.57799625	14.87341881	1.0
5	-45.70000076	109.4620056	0	5.133574963	14.5038805	14.77278042	1.0
[RightArm]
3	-105.9280014	-5.248000145	-22.32099915	30.55691338	1.084991455	61.52178574	1.0
4	-105.9280014	-5.248000145	-22.32099915	30.3163166	0.2774556577	60.7322731	1.0
5	-105.9280014	-5.248000145	-22.32099915	30.0165863	-0.5954638124	59.83728409	1.0
[RightForeArm]
3	-278.414978	0	0	-7.698835361e-06	7.457727909	-1.775101737e-07	1.0
4	-278.414978	0	0	-6.229812698e-06	8.011338234	1.046854959e-05	1.0
5	-278.414978	0	0	-6.110659797e-06	8.600143433	1.391033857e-05	1.0
[RightHand]
3	-283.2879944	0	0.0009999999311	-20.91101265	1.39817071	6.379382133	1.0
4	-283.2879944	0	0.0009999999311	-21.45987511	0.7370354533	6.23300457	1.0
5	-283.2879944	0	0.0009999999311	-22.05429077	-0.24478513	6.0790205	1.0
[RightHandPinky1]
3	-80.76699829	-4.885000229	-38.06000137	-1.559352279	-4.489199638	26.70771599	1.0
4	-80.76699829	-4.885000229	-38.06000137	-1.579860091	-4.406764507	26.78479195	1.0
5	-80.76699829	-4.885000229	-38.06000137	-1.592696786	-4.350300312	26.82255173	1.0
[RightHandPinky2]
3	-36	0	0.0009999999311	-0.2137268484	-1.391940594	17.47761536	1.0
4	-36	0	0.0009999999311	-0.2136319131	-1.391620636	17.47349548	1.0
5	-36	0	0.0009999999311	-0.2150659561	-1.396169543	17.5323391	1.0
[RightHandPinky3]
3	-21.14200211	0	0	-0.1927267015	-1.323336601	16.57163239	1.0
4	-21.14200211	0	0	-0.1925875992	-1.322880268	16.56568718	1.0
5	-21.14200211	0	0	-0.193921715	-1.327346206	16.62326813	1.0
[RightHandPinky4]
3	-19.75699997	0	0	0	0	0	1.0
4	-19.75699997	0	0	0	0	0	1.0
5	-19.75699997	0	0	0	0	0	1.0
[RightHandRing1]
3	-91.03599548	-0.4390000105	-18.65100098	-1.05567646	-2.842038155	20.63689613	1.0
4	-91.03599548	-0.4390000105	-18.65100098	-1.060510039	-2.826294899	20.71047401	1.0
5	-91.03599548	-0.4390000105	-18.65100098	-1.063202381	-2.820219994	20.75134468	1.0
[RightHandRing2]
3	-31.54000092	0	0	-0.3066602945	-1.658671021	20.94817734	1.0
4	-31.54000092	0	0	-0.3066617548	-1.658680439	20.94816589	1.0
5	-31.54000092	0	0	-0.3066571951	-1.658686399	20.94816208	1.0
[RightHandRing3]
3	-29.37700081	0	0	-0.2245190293	-1.425784111	17.89686203	1.0
4	-29.37700081	0	0	-0.224516511	-1.425783753	17.89686775	1.0
5	-29.37700081	0	0	-0.2245183289	-1.425786614	17.89686584	1.0
[RightHandRing4]
3	-26.47500038	0	0	0	0	0	1.0
4	-26.47500038	0	0	0	0	0	1.0
5	-26.47500038	0	0	0	0	0	1.0
[RightHandMiddle1]
3	-95.32500458	0	0	-0.712077558	-2.11221838	15.18842125	1.0
4	-95.32500458	0	0	-0.7156605124	-2.127239943	15.24798679	1.0
5	-95.32500458	0	0	-0.7172430158	-2.135121822	15.27418518	1.0
[RightHandMiddle2]
3	-36.98199844	0	0	-0.2136302739	-1.391641498	17.45414925	1.0
4	-36.98199844	0	0	-0.2136357278	-1.391657114	17.45433807	1.0
5	-36.98199844	0	0	-0.2137493342	-1.392017245	17.45887756	1.0
[RightHandMiddle3]
3	-29.50900078	0	0	-0.2388296127	-1.471379161	18.46341705	1.0
4	-29.50900078	0	0	-0.2388360649	-1.471395969	18.46360779	1.0
5	-29.50900078	0	0	-0.23895666	-1.471737385	18.46813965	1.0
[RightHandMiddle4]
3	-28.3390007	0	0.0009999999311	0	0	0	1.0
4	-28.3390007	0	0.0009999999311	0	0	0	1.0
5	-28.3390007	0	0.0009999999311	0	0	0	1.0
[RightHandIndex1]
3	-91.08300018	-5.167999744	22.60099792	0.1700078845	1.271634102	6.950099945	1.0
4	-91.08300018	-5.167999744	22.60099792	0.1651784629	1.260432124	7.047638416	1.0
5	-91.08300018	-5.167999744	22.60099792	0.161967501	1.251586795	7.114148617	1.0
[RightHandIndex2]
3	-36.76399994	0	0	-0.2118842751	-1.386068225	17.38189316	1.0
4	-36.76399994	0	0	-0.2115605623	-1.385044336	17.3686924	1.0
5	-36.76399994	0	0	-0.2118197531	-1.38587594	17.37941933	1.0
[RightHandIndex3]
3	-28.83100128	0	0	-0.04547357932	-0.6480485201	8.027772903	1.0
4	-28.83100128	0	0	-0.04532498121	-0.6469908357	8.014552116	1.0
5	-28.83100128	0	0	-0.04544626549	-0.6478517056	8.025277138	1.0
[RightHandIndex4]
3	-23.92700005	0	0	0	0	0	1.0
4	-23.92700005	0	0	0	0	0	1.0
5	-23.92700005	0	0	0	0	0	1.0
[RightHandThumb1]
3	-24.64799881	-15.72700024	26.82600021	-1.658465981	-0.2891423702	-4.221325874	1.0
4	-24.64799881	-15.72700024	26.82600021	-1.658465981	-0.2891423702	-4.221325874	1.0
5	-24.64799881	-15.72700024	26.82600021	-1.658465981	-0.2891423702	-4.221325874	1.0
[RightHandThumb2]
3	-32.29800034	-18.64699936	18.64699936	22.26694679	-23.91511726	-24.25353622	1.0
4	-32.29800034	-18.64699936	18.64699936	22.34451294	-24.00168991	-24.25511169	1.0
5	-32.29800034	-18.64699936	18.64699936	22.41952896	-24.08506203	-24.26130295	1.0
[RightHandThumb3]
3	-26.52600098	-15.31399918	15.31399918	-14.49307251	-6.731805325	-11.36925507	1.0
4	-26.52600098	-15.31399918	15.31399918	-14.49307442	-6.731820107	-11.36925697	1.0
5	-26.52600098	-15.31399918	15.31399918	-14.49310589	-6.731771946	-11.36926079	1.0
[RightHandThumb4]
3	-19.54599953	-11.28499985	11.28499985	0	0	0	1.0
4	-19.54599953	-11.28499985	11.28499985	0	0	0	1.0
5	-19.54599953	-11.28499985	11.28499985	0	0	0	1.0
[LeftUpLeg]
3	82.07800293	-67.51699829	-15.99599934	-17.8661232	35.48872757	5.676549435	1.0
4	82.07800293	-67.51699829	-15.99599934	-19.37078285	35.88105774	5.477931976	1.0
5	82.07800293	-67.51699829	-15.99599934	-19.53947067	36.27584457	6.021517754	1.0
[LeftLeg]
3	0	-443.7049866	2.845999956	21.34568405	-8.54353714	-0.3703693151	1.0
4	0	-443.7049866	2.845999956	22.69672012	-8.892335892	-2.26728487	1.0
5	0	-443.7049866	2.845999956	23.60052872	-6.883700371	-3.19295311	1.0
[LeftFoot]
3	0	-444.2789917	-29.8219986	2.287037134	-11.6476326	-10.76865578	1.0
4	0	-444.2789917	-29.8219986	3.497665644	-7.54832077	-13.52734661	1.0
5	0	-444.2789917	-29.8219986	3.744210482	0.006985115819	-12.43552685	1.0
[LeftToeBase]
3	0	-87.28699493	107.1060028	-3.885762453	-0.0001686466421	-0.002502342686	1.0
4	0	-87.28699493	107.1060028	-3.669473648	0.000955076539	0.0147655867	1.0
5	0	-87.28699493	107.1060028	-3.82972765	0.0020760349	0.03174844384	1.0
[RightUpLeg]
3	-82.07800293	-67.51699829	-15.99599934	-5.561403275	-18.04179382	3.981548071	1.0
4	-82.07800293	-67.51699829	-15.99599934	-6.209597588	-21.90740013	4.025435925	1.0
5	-82.07800293	-67.51699829	-15.99599934	-6.429687977	-25.56202126	4.185896873	1.0
[RightLeg]
3	0	-443.7049866	2.861999989	15.6981039	-8.753211975	-5.815326214	1.0
4	0	-443.7049866	2.861999989	15.54895782	-8.770675659	-5.791795254	1.0
5	0	-443.7049866	2.861999989	14.64300251	-8.854044914	-5.647955894	1.0
[RightFoot]
3	0	-444.2770081	-29.83799934	-7.340495586	-1.406550527	3.63420248	1.0
4	0	-444.2770081	-29.83799934	-7.173036098	-1.49194634	3.209998608	1.0
5	0	-444.2770081	-29.83799934	-6.607554436	-1.486571193	2.605439901	1.0
[RightToeBase]
3	0	-87.28699493	107.1060028	-7.282874584	2.32676939e-06	-4.650698315e-07	1.0
4	0	-87.28699493	107.1060028	-7.282875538	-4.176004495e-06	-6.181188041e-07	1.0
5	0	-87.28699493	107.1060028	-7.282879829	-7.355758498e-06	-3.24904164e-07	1.0
[EndOfFile]
